<svg width="552" height="277" viewBox="0 0 552 277" fill="none" xmlns="http://www.w3.org/2000/svg">
<path d="M396.327 174.683C361.19 197.511 320.117 209.491 278.224 209.129C212.981 209.129 158.517 184.017 114.833 133.794C82.235 96.3272 61.8024 51.857 53.5349 0.383089L0.233019 0.383091C0.645805 78.8684 26.7395 144.361 78.5141 196.862C130.702 249.728 195.785 276.161 273.766 276.161C325.34 276.161 372.379 264.072 414.884 239.892C456.696 216.442 491.298 181.991 514.942 140.272C538.966 98.2979 551.043 51.6859 551.173 0.43622L505.973 0.436222C501.389 28.1434 492.646 54.998 480.039 80.0897C459.812 120.176 431.908 151.707 396.327 174.683Z" fill="#FFE600"/>
<path d="M377.232 94.1677C349.515 119.924 315.33 132.808 274.676 132.82C234.021 132.832 200.161 120.107 173.093 94.6451C146.238 69.419 132.705 37.9982 132.492 0.382988L53.291 0.382992C61.554 51.7783 82.0051 96.201 114.644 133.651C158.32 183.832 212.833 208.917 278.181 208.905C320.112 209.267 361.222 197.301 396.39 174.496C432.016 151.545 459.945 120.036 480.177 79.9691C492.796 54.9041 501.547 28.0782 506.135 0.40067L418.824 0.400674C418.6 37.3558 404.736 68.6115 377.232 94.1677Z" fill="#ED910C"/>
</svg>
