<svg width="85" height="179" viewBox="0 0 85 179" fill="none" xmlns="http://www.w3.org/2000/svg">
<path d="M31.2739 128.201C24.3636 116.871 20.721 103.637 20.8415 90.1321C20.8415 69.1073 28.4482 51.5512 43.675 37.4778C55.0315 26.9725 68.504 20.3765 84.1057 17.7182V0.545898C60.3348 0.673838 40.4877 9.08942 24.5913 25.7784C8.56093 42.5954 0.539063 63.5775 0.539063 88.7105C0.539063 105.314 4.2085 120.482 11.5206 134.186C18.6318 147.662 29.0776 158.807 41.7198 166.427C54.4423 174.188 68.5575 178.069 84.079 178.112V163.555C75.6821 162.077 67.5531 159.262 59.9464 155.196C47.7998 148.672 38.2378 139.673 31.2739 128.201Z" fill="#FFE400"/>
<path d="M55.6743 122.032C47.8534 113.119 43.9429 102.102 43.9429 89.009C43.9429 75.9166 47.7998 65.0133 55.5136 56.2991C63.1739 47.6419 72.6957 43.2777 84.1191 43.2209V17.7182C68.5307 20.3908 55.0449 26.9725 43.6884 37.4778C28.475 51.5512 20.8549 69.1073 20.8549 90.1321C20.7477 103.637 24.377 116.871 31.3007 128.201C38.2512 139.673 47.8132 148.672 59.9732 155.182C67.5665 159.248 75.6955 162.063 84.0924 163.541V135.394C72.8832 135.337 63.415 130.888 55.6743 122.032Z" fill="#EC9122"/>
</svg>
