<svg width="97" height="179" viewBox="0 0 97 179" fill="none" xmlns="http://www.w3.org/2000/svg">
<path d="M69.6762 31.5055C75.8809 38.9363 79.8459 48.1156 81.0889 57.8889C83.1679 73.0981 79.3101 86.6261 69.5369 98.484C62.2391 107.327 52.991 113.57 41.8033 117.201L43.4964 129.62C60.9532 126.919 74.6807 118.67 84.711 104.861C94.8057 90.9299 98.61 74.8801 96.1238 56.6785C94.4842 44.6636 90.3049 34.0945 83.5751 24.9825C77.0275 16.0161 68.2616 9.08964 58.2312 4.96512C48.1366 0.762149 37.3775 -0.515551 25.9647 1.15443L27.4007 11.7011C33.7125 11.8468 39.9708 13.0012 45.9504 15.0971C55.5308 18.5043 63.4393 23.9738 69.6762 31.5055Z" fill="#EC3593"/>
<path d="M52.4016 38.6337C59.0242 44.2377 62.9785 51.7694 64.2645 61.2401C65.5504 70.6996 63.793 79.0159 58.9921 86.1777C54.2234 93.2723 47.6436 97.4753 39.2635 98.7754L41.7818 117.201C52.9696 113.559 62.2069 107.327 69.5154 98.484C79.2993 86.6373 83.1465 73.0981 81.0782 57.8889C79.8244 48.1044 75.8594 38.9363 69.6654 31.5055C63.4179 23.9626 55.5093 18.5043 45.9504 15.1195C39.9708 13.0124 33.7125 11.8692 27.4007 11.7235L30.1762 32.0659C38.4169 30.8891 45.8326 33.0858 52.4016 38.6337Z" fill="#B11F80"/>
<path d="M26.3473 1.26792L0.418701 5.1357L24.081 178.653L50.0096 174.785L26.3473 1.26792Z" fill="#EC3593"/>
</svg>
