<svg width="159" height="15" viewBox="0 0 159 15" fill="none" xmlns="http://www.w3.org/2000/svg">
<path d="M42.6937 10.704H36.3168L34.8621 14.6177H33.2188L38.6049 0.294434H40.3623L45.7721 14.6177H44.1484L42.6937 10.704ZM38.369 9.14619H42.1433L39.5052 2.01442L36.3168 10.704" fill="#070707"/>
<path d="M36.3164 10.6998C36.4678 10.2443 36.745 9.85062 37.1102 9.57256C37.4754 9.29451 37.9108 9.14562 38.3569 9.14624" fill="#070707"/>
<path d="M0.402344 11.5833L1.66829 10.7766C2.38383 12.4838 3.83849 13.3673 5.72561 13.3673C7.76607 13.3673 8.97304 12.343 8.97304 10.7851C8.97304 9.57305 8.27323 8.83896 6.57482 8.38655L4.45967 7.83172C2.04178 7.20006 0.799427 5.97089 0.799427 4.0247C0.799427 1.68585 2.5922 0.00854492 5.51724 0.00854492C7.91547 0.00854492 9.6532 1.11395 10.298 2.62907L9.0674 3.44852C8.40691 2.24069 7.15275 1.56635 5.48186 1.56635C3.55542 1.56635 2.40348 2.46689 2.40348 4.00336C2.40348 5.15144 3.04432 5.84712 4.83709 6.31659L6.95225 6.87143C9.53918 7.54577 10.6125 8.77494 10.6125 10.7126C10.6125 13.2136 8.81971 14.9123 5.70596 14.9123C3.02859 14.9208 1.15719 13.6532 0.402344 11.5833Z" fill="#070707"/>
<path d="M22.9632 7.78897L27.3547 0.294434H29.0335V14.6177H27.5041V2.9363L22.8256 10.8875H21.5243L16.8419 2.9363V14.6177H15.3125V0.294434H16.9834L23.0104 10.5375" fill="#070707"/>
<path d="M51.1859 10.6912V14.6177H49.6133V0.294434H55.0663C57.8301 0.294434 59.4421 1.97174 59.4421 4.63922C59.4421 7.2 57.9127 8.79621 55.3061 8.90718L59.7527 14.6177H57.8695L53.4308 8.89864H51.1859C51.1859 8.69687 51.2225 8.49708 51.2936 8.31066C51.3648 8.12425 51.469 7.95487 51.6004 7.8122C51.7319 7.66952 51.8879 7.55635 52.0596 7.47914C52.2313 7.40192 52.4154 7.36218 52.6012 7.36218H54.9208C56.9573 7.36218 57.8066 6.48298 57.8066 4.63922C57.8066 2.79546 56.9573 1.86931 54.9208 1.86931H51.1859V10.6912Z" fill="#070707"/>
<path d="M68.8786 1.89065V14.6177H67.306V3.61491M68.8786 1.90772H62.8477V0.294434H73.3409V1.89065H68.8786C68.4615 1.89065 68.0615 2.07052 67.7666 2.39067C67.4717 2.71083 67.306 3.14506 67.306 3.59784" fill="#070707"/>
<path d="M76.4336 11.5832L77.6995 10.7766C78.4151 12.4539 79.8697 13.3587 81.7569 13.3587C83.7973 13.3587 85.0043 12.3344 85.0043 10.7766C85.0043 9.5645 84.3045 8.83041 82.6061 8.37801L80.4909 7.82317C78.0573 7.19152 76.8307 5.96234 76.8307 4.01615C76.8307 1.67731 78.6234 0 81.5485 0C83.9467 0 85.6844 1.1054 86.3253 2.62053L85.0986 3.43998C84.4382 2.23214 83.1722 1.55781 81.5131 1.55781C79.5867 1.55781 78.4347 2.45835 78.4347 3.99481C78.4347 5.14289 79.0756 5.83857 80.8683 6.30805L82.9835 6.86288C85.5704 7.53722 86.6437 8.76639 86.6437 10.704C86.6437 13.2051 84.851 14.9037 81.7372 14.9037C79.0598 14.9208 77.1884 13.6532 76.4336 11.5832Z" fill="#070707"/>
<path d="M92.9281 9.14619V14.6177H91.3555V0.294434H96.7731C99.6038 0.294434 101.208 2.00162 101.208 4.72031C101.208 7.439 99.6038 9.14619 96.7731 9.14619H92.9438C92.9438 8.72698 93.0969 8.32488 93.3696 8.02805C93.6423 7.73123 94.0123 7.5639 94.3985 7.56277H96.6394C98.6995 7.56277 99.5684 6.68357 99.5684 4.71604C99.5684 2.74851 98.6995 1.86504 96.6394 1.86504H92.9438V9.27423" fill="#070707"/>
<path d="M112.252 10.704H105.871L104.421 14.6177H102.777L108.191 0.294434H109.948L115.327 14.6177H113.695L112.252 10.704ZM107.928 9.14619H111.698L109.064 2.01442L105.871 10.704" fill="#070707"/>
<path d="M118.176 7.46467C118.176 3.24366 120.951 0.00854492 124.82 0.00854492C127.273 0.00854492 129.463 1.25479 130.576 3.69606L129.255 4.51551C128.882 3.61877 128.271 2.86295 127.501 2.34451C126.731 1.82608 125.836 1.56854 124.93 1.60476C121.871 1.60476 119.819 4.06311 119.819 7.46467C119.819 10.8662 121.875 13.3374 124.934 13.3374C125.844 13.3736 126.743 13.1165 127.518 12.5985C128.294 12.0804 128.91 11.3247 129.29 10.4266L130.576 11.2461C129.463 13.6874 127.273 14.9336 124.82 14.9336C120.912 14.9208 118.176 11.6857 118.176 7.46467Z" fill="#070707"/>
<path d="M136.67 14.6177C136.67 14.1989 136.824 13.7972 137.096 13.5011C137.369 13.2049 137.739 13.0386 138.125 13.0386H144.282V14.6177H135.09V0.294434H144.093V1.86931H136.674V8.18163M136.674 8.18163C136.674 7.76847 136.825 7.37224 137.095 7.08009C137.364 6.78795 137.729 6.62382 138.109 6.62382H143.716V8.18163H136.674V14.6177V8.18163Z" fill="#070707"/>
<path d="M148.371 11.5832L149.633 10.7766C150.353 12.4539 151.807 13.3587 153.694 13.3587C155.731 13.3587 156.938 12.3344 156.938 10.7766C156.938 9.5645 156.242 8.83041 154.544 8.37801L152.428 7.82317C149.995 7.19152 148.768 5.96234 148.768 4.01615C148.768 1.67731 150.561 0 153.486 0C155.88 0 157.618 1.1054 158.259 2.62053L157.032 3.43998C156.372 2.23214 155.11 1.55781 153.447 1.55781C151.52 1.55781 150.372 2.45835 150.372 3.99481C150.372 5.14289 151.013 5.83857 152.806 6.30805L154.921 6.86288C157.504 7.53722 158.581 8.76639 158.581 10.704C158.581 13.2051 156.788 14.9037 153.675 14.9037C150.993 14.9208 149.126 13.6532 148.371 11.5832Z" fill="#070707"/>
<path d="M105.879 10.6998C106.03 10.2443 106.308 9.85062 106.673 9.57256C107.038 9.29451 107.473 9.14562 107.919 9.14624" fill="#070707"/>
<path d="M23.0202 10.5502C22.751 10.1519 22.601 9.67345 22.5904 9.17958C22.5799 8.6857 22.7093 8.20023 22.9612 7.78882" fill="#070707"/>
</svg>
