<svg width="17" height="16" viewBox="0 0 17 16" fill="none" xmlns="http://www.w3.org/2000/svg">
<path d="M9.12962 16L7.67507 16L7.67507 15.2727L6.9478 15.2727L6.9478 14.5455L6.22052 14.5455L6.22052 13.8182L5.49325 13.8182L5.49325 13.0909L4.76598 13.0909L4.76598 12.3636L4.03871 12.3636L4.03871 11.6364L3.31143 11.6364L3.31143 10.9091L2.58416 10.9091L2.58416 10.1818L1.85689 10.1818L1.85689 9.45454L1.12962 9.45454L1.12962 8.72727L0.402342 8.72727L0.402343 8L1.12962 8L1.12962 7.27273L1.85689 7.27273L1.85689 6.54545L2.58416 6.54545L2.58416 7.27273L3.31143 7.27273L3.31143 8L4.03871 8L4.03871 8.72727L4.76598 8.72727L4.76598 9.45454L5.49325 9.45455L5.49325 10.1818L6.22053 10.1818L6.22053 10.9091L6.9478 10.9091L6.9478 1.27132e-07L9.85689 3.81452e-07L9.85689 10.9091L10.5842 10.9091L10.5842 10.1818L11.3114 10.1818L11.3114 9.45455L12.0387 9.45455L12.0387 8.72727L12.766 8.72727L12.766 8L13.4933 8L13.4933 7.27273L14.2205 7.27273L14.2205 6.54545L14.9478 6.54545L14.9478 7.27273L15.6751 7.27273L15.6751 8L16.4023 8L16.4023 8.72727L15.6751 8.72727L15.6751 9.45455L14.9478 9.45455L14.9478 10.1818L14.2205 10.1818L14.2205 10.9091L13.4933 10.9091L13.4933 11.6364L12.766 11.6364L12.766 12.3636L12.0387 12.3636L12.0387 13.0909L11.3114 13.0909L11.3114 13.8182L10.5842 13.8182L10.5842 14.5455L9.85689 14.5455L9.85689 15.2727L9.12962 15.2727L9.12962 16Z" fill="#070707"/>
</svg>
