<svg width="25" height="20" viewBox="0 0 25 20" fill="none" xmlns="http://www.w3.org/2000/svg">
<path d="M7.30234 1.875H12.7023C12.8673 1.875 13.0023 2.01562 13.0023 2.1875V3.75H7.00234V2.1875C7.00234 2.01562 7.13734 1.875 7.30234 1.875ZM5.20234 2.1875V3.75H2.80234C1.47859 3.75 0.402344 4.87109 0.402344 6.25V10H13.9098C15.1211 8.47266 16.9511 7.5 19.0023 7.5C19.2048 7.5 19.4036 7.50781 19.6023 7.52734V6.25C19.6023 4.87109 18.5261 3.75 17.2023 3.75H14.8023V2.1875C14.8023 0.980469 13.8611 0 12.7023 0H7.30234C6.14359 0 5.20234 0.980469 5.20234 2.1875ZM8.80234 13.75C8.13859 13.75 7.60234 13.1914 7.60234 12.5V11.25H0.402344V16.25C0.402344 17.6289 1.47859 18.75 2.80234 18.75H13.9098C12.9686 17.5625 12.4023 16.0352 12.4023 14.375C12.4023 14.1641 12.4098 13.957 12.4286 13.75H8.80234ZM24.4023 14.375C24.4023 12.8832 23.8334 11.4524 22.8207 10.3975C21.808 9.34263 20.4345 8.75 19.0023 8.75C17.5702 8.75 16.1967 9.34263 15.184 10.3975C14.1713 11.4524 13.6023 12.8832 13.6023 14.375C13.6023 15.8668 14.1713 17.2976 15.184 18.3525C16.1967 19.4074 17.5702 20 19.0023 20C20.4345 20 21.808 19.4074 22.8207 18.3525C23.8334 17.2976 24.4023 15.8668 24.4023 14.375ZM19.0023 11.25C19.3323 11.25 19.6023 11.5312 19.6023 11.875V13.75H20.8023C21.1323 13.75 21.4023 14.0312 21.4023 14.375C21.4023 14.7188 21.1323 15 20.8023 15H19.0023C18.6723 15 18.4023 14.7188 18.4023 14.375V11.875C18.4023 11.5312 18.6723 11.25 19.0023 11.25Z" fill="#F14A58"/>
</svg>
