<svg width="29" height="28" viewBox="0 0 29 28" fill="none" xmlns="http://www.w3.org/2000/svg">
<path d="M8.84828 18.6607C11.863 18.6676 14.7102 20.3174 16.1952 22.9285V22.9305C16.8092 24.0128 17.1733 25.2148 17.2665 26.4496L17.2902 26.9801L17.2724 27.1825C17.1837 27.6421 16.7791 27.9921 16.2901 27.998C15.7316 28.0042 15.2729 27.559 15.2662 27.0037C15.2546 26.0574 15.033 25.1274 14.6199 24.2784L14.4321 23.9188C13.3066 21.9401 11.1346 20.6795 8.84828 20.6728C7.71273 20.6815 6.59895 20.9852 5.61857 21.555C4.63683 22.1257 3.82317 22.9433 3.25855 23.9247L3.25658 23.9227C2.72349 24.8643 2.43926 25.9252 2.42642 27.0057C2.41982 27.5612 1.96139 28.0064 1.40256 27.9999C0.843722 27.9934 0.395881 27.5376 0.402414 26.9821C0.419281 25.5616 0.795522 24.1679 1.49743 22.9305L1.50138 22.9246L1.79392 22.453C2.51191 21.3753 3.46998 20.473 4.59669 19.8181C5.88445 19.0696 7.34869 18.6709 8.84037 18.6607H8.84828ZM11.6847 12.4182C11.6847 12.0535 11.6116 11.6913 11.4692 11.3552C11.327 11.0196 11.1184 10.7158 10.8565 10.4612C10.5942 10.2064 10.2824 10.0054 9.94132 9.87169C9.60002 9.73802 9.23478 9.67265 8.86805 9.6811C8.14933 9.69767 7.4651 9.99328 6.96264 10.5044C6.46016 11.0156 6.17992 11.7035 6.17992 12.4182C6.18011 13.1327 6.46036 13.819 6.96264 14.3301C7.46511 14.8413 8.14924 15.1368 8.86805 15.1534C9.23478 15.1618 9.60002 15.0964 9.94132 14.9628C10.2824 14.8291 10.5942 14.63 10.8565 14.3753C11.1188 14.1204 11.3269 13.8153 11.4692 13.4793C11.6114 13.1434 11.6846 12.7826 11.6847 12.4182ZM20.2669 4.93585C20.9477 4.92859 21.6238 5.05431 22.2553 5.30721C22.8866 5.56013 23.4618 5.93529 23.9473 6.40953C24.4329 6.88417 24.8205 7.45025 25.0858 8.0738C25.351 8.69737 25.4907 9.36759 25.4949 10.0446C25.495 10.0538 25.4931 10.0629 25.4929 10.0721C25.4719 11.0031 25.2002 11.9133 24.7003 12.7051C24.3154 13.3147 23.8075 13.8346 23.212 14.2358V15.7448C23.2002 16.1249 23.04 16.4862 22.7653 16.7508C22.5594 16.9491 22.3015 17.082 22.0241 17.136L21.7414 17.1635H18.9821C18.6011 17.1618 18.2353 17.013 17.9622 16.7489C17.6889 16.4844 17.5293 16.1238 17.5175 15.7448V14.2731C16.9453 13.8879 16.454 13.3925 16.0746 12.8132C15.5781 12.0548 15.2905 11.1799 15.2405 10.2765L15.2385 10.2568C15.2144 9.5804 15.3259 8.90613 15.5647 8.27226C15.8034 7.63849 16.165 7.05705 16.63 6.56279C17.0953 6.06838 17.656 5.6688 18.2765 5.38974C18.8967 5.11098 19.5668 4.95682 20.2471 4.93585H20.2669ZM20.3025 6.94791C19.8909 6.96152 19.4859 7.05439 19.1106 7.223C18.733 7.39281 18.3917 7.63544 18.1085 7.93626C17.8253 8.23716 17.6055 8.59177 17.4602 8.97766C17.3153 9.36244 17.2483 9.77155 17.2625 10.1821C17.2956 10.7281 17.4703 11.2561 17.7705 11.7148C18.0738 12.1781 18.4948 12.5541 18.99 12.8053C19.3284 12.9771 19.5412 13.3236 19.5415 13.7013V15.1514H21.188V13.6659C21.188 13.288 21.4028 12.9418 21.7414 12.7699C22.2518 12.5107 22.6819 12.1187 22.9867 11.6362C23.2889 11.1575 23.4545 10.6052 23.4689 10.0367C23.4638 9.63159 23.3806 9.23112 23.2219 8.8578C23.0606 8.47864 22.8253 8.13459 22.5301 7.84588C22.2345 7.557 21.8828 7.32789 21.4983 7.17388C21.1183 7.02176 20.7121 6.94529 20.3025 6.94791ZM12.5089 3.15761C12.8295 2.70281 13.4605 2.59163 13.9182 2.91003L15.278 3.85908L15.4342 3.99073C15.7579 4.33066 15.8079 4.86185 15.5271 5.26006C15.2464 5.65805 14.7274 5.79219 14.2957 5.60588L14.1178 5.50567L12.7579 4.55859L12.6018 4.42497C12.2785 4.08518 12.2286 3.55563 12.5089 3.15761ZM26.8093 2.91003C27.2666 2.59149 27.8975 2.70158 28.2186 3.15564C28.5397 3.61041 28.429 4.23937 27.9716 4.55859L26.6137 5.50567C26.1563 5.82471 25.5255 5.71465 25.2044 5.26006C24.8833 4.80529 24.994 4.17829 25.4514 3.85908L26.8093 2.91003ZM19.3557 2.65655V1.00603C19.3557 0.450416 19.8088 0 20.3677 0C20.9264 0.000279893 21.3797 0.450589 21.3797 1.00603V2.65655C21.3794 3.21171 20.9262 3.66231 20.3677 3.66259C19.809 3.66259 19.356 3.21188 19.3557 2.65655ZM13.7087 12.4182C13.7086 13.0505 13.5818 13.6766 13.3351 14.2593C13.0881 14.8426 12.725 15.3713 12.2697 15.8136C11.8144 16.2558 11.2748 16.6034 10.6825 16.8353C10.0903 17.0673 9.45698 17.1801 8.82061 17.1654C7.57379 17.1366 6.38757 16.6235 5.51579 15.7369C4.64402 14.85 4.15611 13.6583 4.15591 12.4182C4.15591 11.1779 4.64386 9.98662 5.51579 9.09949C6.38763 8.21246 7.57345 7.69988 8.82061 7.671C9.45693 7.65633 10.0903 7.76724 10.6825 7.99914C11.2747 8.23107 11.8144 8.57874 12.2697 9.02089C12.725 9.46316 13.0881 9.99187 13.3351 10.5751C13.582 11.1582 13.7087 11.7856 13.7087 12.4182Z" fill="#070707"/>
</svg>
