<svg width="27" height="26" viewBox="0 0 27 26" fill="none" xmlns="http://www.w3.org/2000/svg">
<path d="M24.4999 19.9756C24.4999 17.6991 22.6544 15.8537 20.378 15.8537C18.1015 15.8537 16.256 17.6991 16.256 19.9756C16.256 22.2521 18.1015 24.0976 20.378 24.0976C22.6544 24.0976 24.4999 22.2521 24.4999 19.9756ZM19.4267 18.0732C19.4267 17.5478 19.8526 17.122 20.378 17.122C20.9033 17.122 21.3292 17.5478 21.3292 18.0732V19.3873L22.0711 19.7589C22.5408 19.9937 22.7317 20.5648 22.4971 21.0346C22.2769 21.475 21.7613 21.6698 21.3106 21.499L21.2214 21.4607L19.9531 20.8265C19.6309 20.6654 19.4267 20.3359 19.4267 19.9756V18.0732ZM6.42674 15.2195C6.95208 15.2195 7.37796 15.6454 7.37796 16.1707C7.37796 16.6961 6.95208 17.122 6.42674 17.122H5.15845C4.6331 17.122 4.20723 16.6961 4.20723 16.1707C4.20723 15.6454 4.6331 15.2195 5.15845 15.2195H6.42674ZM11.4999 15.2195C12.0253 15.2195 12.4511 15.6454 12.4511 16.1707C12.4511 16.6961 12.0253 17.122 11.4999 17.122H10.2316C9.70627 17.122 9.2804 16.6961 9.2804 16.1707C9.2804 15.6454 9.70627 15.2195 10.2316 15.2195H11.4999ZM19.4267 11.7317V7.03878C19.4267 5.57427 19.4242 4.58124 19.314 3.83832C19.2095 3.13316 19.0252 2.79248 18.7554 2.54773V2.54649C18.4716 2.28992 18.0554 2.10685 17.232 2.00648C16.3888 1.90371 15.2702 1.90244 13.6624 1.90244H8.06908C6.46132 1.90244 5.34276 1.90371 4.49953 2.00648C3.67499 2.10699 3.25868 2.2906 2.97485 2.54773C2.70486 2.79238 2.52187 3.13336 2.4175 3.83832C2.3075 4.58128 2.30479 5.57401 2.30479 7.03878V15.1563C2.30479 16.6209 2.30737 17.6139 2.4175 18.3568C2.52205 19.062 2.70628 19.4026 2.97609 19.6474H2.97485C3.25868 19.9045 3.67499 20.0881 4.49953 20.1886C5.34276 20.2914 6.46132 20.2927 8.06908 20.2927H12.1341C12.6594 20.2927 13.0853 20.7186 13.0853 21.2439C13.0853 21.7692 12.6594 22.1951 12.1341 22.1951H8.06908C6.51011 22.1951 5.25442 22.1963 4.26915 22.0762C3.39066 21.9691 2.61674 21.7556 1.9679 21.2786L1.69789 21.0569C0.984793 20.41 0.677297 19.5879 0.536114 18.6355C0.400536 17.7208 0.402348 16.5617 0.402349 15.1563V7.03878C0.402348 5.63364 0.399469 4.47425 0.534875 3.55964C0.67589 2.60716 0.983879 1.78517 1.69789 1.13824C2.39823 0.503787 3.26518 0.241299 4.26915 0.118903C5.25442 -0.00120185 6.51011 3.96581e-07 8.06908 4.67201e-07H13.6624C15.2214 3.96581e-07 16.4771 -0.00120185 17.4624 0.118903C18.3409 0.226002 19.1148 0.439557 19.7636 0.91654L20.0336 1.13824C20.7467 1.78509 21.0542 2.60725 21.1954 3.55964C21.331 4.47427 21.3292 5.63341 21.3292 7.03878V11.7317C21.3292 12.2571 20.9033 12.6829 20.378 12.6829C19.8526 12.6829 19.4267 12.2571 19.4267 11.7317ZM6.42674 10.1463C6.95208 10.1463 7.37796 10.5722 7.37796 11.0976C7.37796 11.6229 6.95208 12.0488 6.42674 12.0488H5.15845C4.6331 12.0488 4.20723 11.6229 4.20723 11.0976C4.20723 10.5722 4.6331 10.1463 5.15845 10.1463H6.42674ZM11.4999 10.1463C12.0253 10.1463 12.4511 10.5722 12.4511 11.0976C12.4511 11.6229 12.0253 12.0488 11.4999 12.0488H10.2316C9.70627 12.0488 9.2804 11.6229 9.2804 11.0976C9.2804 10.5722 9.70627 10.1463 10.2316 10.1463H11.4999ZM16.5731 10.1463C17.0984 10.1463 17.5243 10.5722 17.5243 11.0976C17.5243 11.6229 17.0984 12.0488 16.5731 12.0488H15.3048C14.7794 12.0488 14.3536 11.6229 14.3536 11.0976C14.3536 10.5722 14.7794 10.1463 15.3048 10.1463H16.5731ZM16.5731 5.07317C17.0984 5.07317 17.5243 5.49905 17.5243 6.02439C17.5243 6.54973 17.0984 6.97561 16.5731 6.97561H5.15845C4.6331 6.97561 4.20723 6.54973 4.20723 6.02439C4.20723 5.49905 4.6331 5.07317 5.15845 5.07317H16.5731ZM26.4023 19.9756C26.4023 23.3028 23.7051 26 20.378 26C17.0508 26 14.3536 23.3028 14.3536 19.9756C14.3536 16.6484 17.0508 13.9512 20.378 13.9512C23.7051 13.9512 26.4023 16.6484 26.4023 19.9756Z" fill="#070707"/>
</svg>
