<svg width="25" height="16" viewBox="0 0 25 16" fill="none" xmlns="http://www.w3.org/2000/svg">
<path d="M3.0549 0H21.7498C23.5135 0 24.4023 0.786667 24.4023 2.38667V13.6133C24.4023 15.2 23.5135 16 21.7498 16H3.0549C1.29123 16 0.402344 15.2 0.402344 13.6133V2.38667C0.402344 0.786667 1.29123 0 3.0549 0ZM12.3953 11.4667L21.905 4.09333C22.2436 3.82667 22.5117 3.21333 22.0884 2.66667C21.6792 2.12 20.9314 2.10667 20.4376 2.44L12.3953 7.58667L4.36707 2.44C3.87324 2.10667 3.12545 2.12 2.71628 2.66667C2.293 3.21333 2.56107 3.82667 2.8997 4.09333L12.3953 11.4667Z" fill="#333333"/>
</svg>
