<svg width="33" height="33" viewBox="0 0 33 33" fill="none" xmlns="http://www.w3.org/2000/svg">
<path d="M11.2801 2.87891H22.4503C26.7056 2.87891 30.163 6.33634 30.163 10.5916V21.7618C30.163 23.8073 29.3504 25.7691 27.904 27.2155C26.4576 28.6619 24.4958 29.4745 22.4503 29.4745H11.2801C7.02481 29.4745 3.56738 26.0171 3.56738 21.7618V10.5916C3.56738 8.54609 4.37997 6.58433 5.82639 5.13791C7.27281 3.6915 9.23457 2.87891 11.2801 2.87891ZM11.0142 5.53847C9.74451 5.53847 8.52686 6.04283 7.62909 6.94061C6.73131 7.83839 6.22694 9.05603 6.22694 10.3257V22.0277C6.22694 24.674 8.36789 26.815 11.0142 26.815H22.7162C23.9859 26.815 25.2035 26.3106 26.1013 25.4128C26.9991 24.515 27.5034 23.2974 27.5034 22.0277V10.3257C27.5034 7.67941 25.3625 5.53847 22.7162 5.53847H11.0142ZM23.8465 7.53314C24.2874 7.53314 24.7102 7.70827 25.0219 8.01999C25.3336 8.33172 25.5088 8.75451 25.5088 9.19536C25.5088 9.63621 25.3336 10.059 25.0219 10.3707C24.7102 10.6825 24.2874 10.8576 23.8465 10.8576C23.4057 10.8576 22.9829 10.6825 22.6712 10.3707C22.3594 10.059 22.1843 9.63621 22.1843 9.19536C22.1843 8.75451 22.3594 8.33172 22.6712 8.01999C22.9829 7.70827 23.4057 7.53314 23.8465 7.53314ZM16.8652 9.52781C18.6286 9.52781 20.3198 10.2283 21.5667 11.4752C22.8136 12.7221 23.5141 14.4133 23.5141 16.1767C23.5141 17.9401 22.8136 19.6313 21.5667 20.8782C20.3198 22.1251 18.6286 22.8256 16.8652 22.8256C15.1018 22.8256 13.4106 22.1251 12.1637 20.8782C10.9168 19.6313 10.2163 17.9401 10.2163 16.1767C10.2163 14.4133 10.9168 12.7221 12.1637 11.4752C13.4106 10.2283 15.1018 9.52781 16.8652 9.52781ZM16.8652 12.1874C15.8072 12.1874 14.7924 12.6077 14.0443 13.3558C13.2962 14.104 12.8758 15.1187 12.8758 16.1767C12.8758 17.2348 13.2962 18.2495 14.0443 18.9976C14.7924 19.7458 15.8072 20.1661 16.8652 20.1661C17.9232 20.1661 18.9379 19.7458 19.6861 18.9976C20.4342 18.2495 20.8545 17.2348 20.8545 16.1767C20.8545 15.1187 20.4342 14.104 19.6861 13.3558C18.9379 12.6077 17.9232 12.1874 16.8652 12.1874Z" fill="white"/>
</svg>
