<svg width="20" height="21" viewBox="0 0 20 21" fill="none" xmlns="http://www.w3.org/2000/svg">
<path d="M4.4515 21H0.2972V7H4.4515V21ZM4.86601 2.53958C4.86601 1.13779 3.77643 0 2.43416 0C1.0868 0 0 1.13779 0 2.53958C0 3.94186 1.0868 5.07965 2.43416 5.07965C3.77643 5.07965 4.86601 3.94186 4.86601 2.53958ZM20 13.2978C20 9.53958 19.2394 6.75221 15.0334 6.75221C13.0123 6.75221 11.6557 7.80725 11.1019 8.90438H11.0979V7H7.06231V21H11.0979V14.0489C11.0979 12.2285 11.5419 10.4649 13.7036 10.4649C15.836 10.4649 15.905 12.5467 15.905 14.1645V21H20V13.2978Z" fill="#006EFF"/>
</svg>
