<svg width="33" height="33" viewBox="0 0 33 33" fill="none" xmlns="http://www.w3.org/2000/svg">
<path d="M10.0061 6.8689C10.0058 7.57426 9.72524 8.25059 9.22623 8.7491C8.72721 9.24762 8.0506 9.52748 7.34524 9.52713C6.63988 9.52678 5.96355 9.24624 5.46504 8.74722C4.96652 8.24821 4.68666 7.5716 4.68701 6.86624C4.68736 6.16088 4.96791 5.48455 5.46692 4.98603C5.96593 4.48752 6.64254 4.20766 7.3479 4.20801C8.05326 4.20836 8.72959 4.4889 9.22811 4.98792C9.72662 5.48693 10.0065 6.16354 10.0061 6.8689ZM10.0859 11.4965H4.7668V28.1454H10.0859V11.4965ZM18.4901 11.4965H13.1976V28.1454H18.4369V19.4087C18.4369 14.5417 24.78 14.0896 24.78 19.4087V28.1454H30.0326V17.6002C30.0326 9.39548 20.6444 9.70133 18.4369 13.7306L18.4901 11.4965Z" fill="white"/>
</svg>
