<svg width="17" height="21" viewBox="0 0 17 21" fill="none" xmlns="http://www.w3.org/2000/svg">
<path fill-rule="evenodd" clip-rule="evenodd" d="M7.66434 20.134C7.66434 20.134 0.402344 14.018 0.402344 8C0.402344 5.87827 1.2452 3.84344 2.74549 2.34315C4.24578 0.842855 6.28061 0 8.40234 0C10.5241 0 12.5589 0.842855 14.0592 2.34315C15.5595 3.84344 16.4023 5.87827 16.4023 8C16.4023 14.018 9.14034 20.134 9.14034 20.134C8.73634 20.506 8.07134 20.502 7.66434 20.134ZM8.40234 11.5C8.86197 11.5 9.3171 11.4095 9.74174 11.2336C10.1664 11.0577 10.5522 10.7999 10.8772 10.4749C11.2022 10.1499 11.46 9.76403 11.6359 9.33939C11.8118 8.91475 11.9023 8.45963 11.9023 8C11.9023 7.54037 11.8118 7.08525 11.6359 6.66061C11.46 6.23597 11.2022 5.85013 10.8772 5.52513C10.5522 5.20012 10.1664 4.94231 9.74174 4.76642C9.3171 4.59053 8.86197 4.5 8.40234 4.5C7.47409 4.5 6.58385 4.86875 5.92747 5.52513C5.27109 6.1815 4.90234 7.07174 4.90234 8C4.90234 8.92826 5.27109 9.8185 5.92747 10.4749C6.58385 11.1313 7.47409 11.5 8.40234 11.5Z" fill="#FF37B3"/>
</svg>
