<svg width="25" height="24" viewBox="0 0 25 24" fill="none" xmlns="http://www.w3.org/2000/svg">
<path fill-rule="evenodd" clip-rule="evenodd" d="M3.06901 0C2.36177 0 1.68349 0.280951 1.18339 0.781048C0.683295 1.28115 0.402344 1.95942 0.402344 2.66667V21.3333C0.402344 22.0406 0.683295 22.7189 1.18339 23.219C1.68349 23.719 2.36177 24 3.06901 24H11.069C11.7763 24 12.4545 23.719 12.9546 23.219C13.4547 22.7189 13.7357 22.0406 13.7357 21.3333V13.3333H21.7357C22.4429 13.3333 23.1212 13.0524 23.6213 12.5523C24.1214 12.0522 24.4023 11.3739 24.4023 10.6667V2.66667C24.4023 1.95942 24.1214 1.28115 23.6213 0.781048C23.1212 0.280951 22.4429 0 21.7357 0H3.06901ZM13.7357 10.6667H21.7357V2.66667H13.7357V10.6667ZM3.06901 13.3333V21.3333H11.069V13.3333H3.06901ZM3.06901 10.6667H11.069V2.66667H3.06901V10.6667Z" fill="#070707"/>
</svg>
