<svg width="114" height="21" viewBox="0 0 114 21" fill="none" xmlns="http://www.w3.org/2000/svg">
<path d="M9.76328 0.908492C9.94669 0.53687 10.4766 0.53687 10.66 0.908493L13.0964 5.84523C13.1693 5.9928 13.3101 6.09509 13.4729 6.11875L18.9209 6.91039C19.331 6.96998 19.4948 7.47397 19.198 7.76324L15.2558 11.606C15.138 11.7208 15.0842 11.8863 15.112 12.0485L16.0426 17.4745C16.1127 17.883 15.684 18.1944 15.3172 18.0016L10.4443 15.4398C10.2987 15.3632 10.1246 15.3632 9.97898 15.4398L5.10613 18.0016C4.73932 18.1944 4.3106 17.883 4.38065 17.4745L5.31129 12.0485C5.33911 11.8863 5.28533 11.7208 5.16749 11.606L1.22527 7.76324C0.928511 7.47397 1.09227 6.96998 1.50238 6.91039L6.95039 6.11875C7.11324 6.09509 7.25403 5.9928 7.32686 5.84523L9.76328 0.908492Z" fill="#FF37B3"/>
<path d="M33.1031 0.908492C33.2865 0.53687 33.8165 0.53687 33.9999 0.908493L36.4363 5.84523C36.5091 5.9928 36.6499 6.09509 36.8128 6.11875L42.2608 6.91039C42.6709 6.96998 42.8346 7.47397 42.5379 7.76324L38.5957 11.606C38.4778 11.7208 38.424 11.8863 38.4519 12.0485L39.3825 17.4745C39.4525 17.883 39.0238 18.1944 38.657 18.0016L33.7842 15.4398C33.6385 15.3632 33.4645 15.3632 33.3188 15.4398L28.446 18.0016C28.0792 18.1944 27.6504 17.883 27.7205 17.4745L28.6511 12.0485C28.6789 11.8863 28.6252 11.7208 28.5073 11.606L24.5651 7.76324C24.2684 7.47397 24.4321 6.96998 24.8422 6.91039L30.2902 6.11875C30.4531 6.09509 30.5939 5.9928 30.6667 5.84523L33.1031 0.908492Z" fill="#FF37B3"/>
<path d="M56.4449 0.908492C56.6283 0.53687 57.1583 0.53687 57.3417 0.908493L59.7781 5.84523C59.8509 5.9928 59.9917 6.09509 60.1546 6.11875L65.6026 6.91039C66.0127 6.96998 66.1764 7.47397 65.8797 7.76324L61.9375 11.606C61.8196 11.7208 61.7658 11.8863 61.7937 12.0485L62.7243 17.4745C62.7943 17.883 62.3656 18.1944 61.9988 18.0016L57.126 15.4398C56.9803 15.3632 56.8063 15.3632 56.6606 15.4398L51.7878 18.0016C51.421 18.1944 50.9922 17.883 51.0623 17.4745L51.9929 12.0485C52.0207 11.8863 51.967 11.7208 51.8491 11.606L47.9069 7.76324C47.6102 7.47397 47.7739 6.96998 48.184 6.91039L53.632 6.11875C53.7949 6.09509 53.9357 5.9928 54.0085 5.84523L56.4449 0.908492Z" fill="#FF37B3"/>
<path d="M79.7867 0.908492C79.9701 0.53687 80.5 0.53687 80.6835 0.908493L83.1199 5.84523C83.1927 5.9928 83.3335 6.09509 83.4964 6.11875L88.9444 6.91039C89.3545 6.96998 89.5182 7.47397 89.2215 7.76324L85.2793 11.606C85.1614 11.7208 85.1076 11.8863 85.1355 12.0485L86.0661 17.4745C86.1361 17.883 85.7074 18.1944 85.3406 18.0016L80.4678 15.4398C80.3221 15.3632 80.1481 15.3632 80.0024 15.4398L75.1296 18.0016C74.7628 18.1944 74.334 17.883 74.4041 17.4745L75.3347 12.0485C75.3625 11.8863 75.3088 11.7208 75.1909 11.606L71.2487 7.76324C70.9519 7.47397 71.1157 6.96998 71.5258 6.91039L76.9738 6.11875C77.1367 6.09509 77.2775 5.9928 77.3503 5.84523L79.7867 0.908492Z" fill="#FF37B3"/>
<path d="M103.127 0.908492C103.31 0.53687 103.84 0.53687 104.023 0.908493L106.46 5.84523C106.533 5.9928 106.673 6.09509 106.836 6.11875L112.284 6.91039C112.694 6.96998 112.858 7.47397 112.561 7.76324L108.619 11.606C108.501 11.7208 108.447 11.8863 108.475 12.0485L109.406 17.4745C109.476 17.883 109.047 18.1944 108.68 18.0016L103.808 15.4398C103.662 15.3632 103.488 15.3632 103.342 15.4398L98.4694 18.0016C98.1026 18.1944 97.6739 17.883 97.7439 17.4745L98.6746 12.0485C98.7024 11.8863 98.6486 11.7208 98.5308 11.606L94.5886 7.76324C94.2918 7.47397 94.4555 6.96998 94.8657 6.91039L100.314 6.11875C100.477 6.09509 100.617 5.9928 100.69 5.84523L103.127 0.908492Z" fill="#FF37B3"/>
</svg>
