<svg width="81" height="80" viewBox="0 0 81 80" fill="none" xmlns="http://www.w3.org/2000/svg">
<path d="M30.8477 68.6341C30.4708 67.3779 30.1628 66.3502 29.8548 65.3181C29.7514 65.4129 29.536 65.5939 29.3378 65.7921C26.9621 68.1665 24.595 70.5518 22.2021 72.9111C21.8898 73.2193 21.4849 73.4735 21.0756 73.6329C15.7987 75.682 10.5218 77.7225 5.22974 79.7328C2.70757 80.6895 0.219873 78.9313 0.396489 76.3435C0.428797 75.8717 0.583874 75.3955 0.754029 74.9494C2.73773 69.761 4.72574 64.5747 6.74174 59.397C6.92913 58.9165 7.24575 58.449 7.60975 58.0805C11.0516 54.6029 14.5085 51.1446 17.9806 47.6972C18.3747 47.3072 18.4781 46.9991 18.267 46.4496C17.0609 43.3124 16.9338 40.0632 17.3796 36.7665C17.4033 36.5877 17.4206 36.4067 17.4507 36.146C15.9602 36.146 14.515 36.1589 13.0698 36.1438C11.0301 36.1201 8.96668 36.2602 6.95713 35.9995C3.37312 35.5362 0.790644 32.6964 0.409412 29.1476C0.0454108 25.754 2.06357 22.494 5.35251 21.1689C5.50112 21.1085 5.64759 21.0504 5.67128 21.0417C5.67128 19.4257 5.5162 17.8636 5.69928 16.3424C6.34113 10.9881 10.4227 6.59899 15.6501 5.48071C21.052 4.32366 26.4797 6.59683 29.3421 11.2746C29.704 11.8672 30.012 11.9447 30.6689 11.837C35.0649 11.1087 38.5865 12.589 41.1711 16.2174C41.505 16.685 41.8582 16.8509 42.401 16.9328C43.9108 17.1569 45.4207 17.4133 46.9025 17.7731C47.5185 17.9218 47.8674 17.8054 48.2917 17.3788C53.0281 12.6127 57.7687 7.85085 62.5373 3.11704C66.4035 -0.722582 72.318 -1.04363 76.4663 2.31335C81.3276 6.24778 81.7088 13.3388 77.2525 17.8442C72.5463 22.6017 67.8057 27.3269 63.0543 32.037C62.546 32.5412 62.4576 32.9549 62.6278 33.6423C62.9832 35.0708 63.19 36.5338 63.457 37.9839C63.5001 38.2166 63.5281 38.4536 63.5712 38.7402H66.173C66.173 39.6258 66.1709 40.451 66.173 41.2763C66.1774 42.3794 66.6684 43.1939 67.6786 43.6399C68.7232 44.101 69.6903 43.9093 70.4937 43.1077C71.0989 42.5044 71.646 41.8408 72.1974 41.2245C74.1315 43.1616 75.9149 44.9478 77.8814 46.9172C77.3106 47.4128 76.6817 47.9105 76.1131 48.4685C75.1869 49.38 74.9715 50.3625 75.4389 51.3924C75.9257 52.4612 76.7829 52.9503 77.9503 52.9287C78.7236 52.9158 79.4968 52.9266 80.3153 52.9266V60.6705C79.5463 60.6705 78.7516 60.6812 77.9589 60.6683C76.7959 60.6489 75.9171 61.11 75.4454 62.1916C74.9586 63.3099 75.2429 64.2946 76.1002 65.1242C76.658 65.665 77.2331 66.1907 77.7371 66.6626C75.8589 68.5415 74.0648 70.3363 72.1177 72.2841C71.6869 71.7993 71.17 71.1852 70.6186 70.6035C69.8217 69.7653 68.8697 69.4787 67.7626 69.9118C66.7266 70.3169 66.1838 71.2046 66.173 72.4694C66.1666 73.1956 66.1644 73.9217 66.158 74.6456C66.158 74.6931 66.1214 74.7405 66.0847 74.8266H58.4342C58.4342 74.066 58.417 73.299 58.4386 72.5319C58.4709 71.3382 58.0186 70.4246 56.9029 69.942C55.7462 69.4421 54.7533 69.7761 53.9176 70.6681C53.405 71.2154 52.8967 71.7692 52.3065 72.4048C51.7853 71.8079 51.3545 71.3102 50.7622 70.6315C50.605 72.7345 49.7327 74.0208 48.0074 74.6909C47.8287 74.7598 47.7102 75.0378 47.6111 75.2425C46.153 78.287 43.7579 80.0022 40.3742 80C36.9905 80 34.5975 78.2827 33.1372 75.2403C33.0295 75.0184 32.8723 74.762 32.6677 74.6521C29.8828 73.1697 29.3184 71.1055 30.8563 68.632L30.8477 68.6341ZM18.4953 25.7799C18.3984 23.7588 19.7359 21.8433 21.739 21.003C22.0255 20.8823 22.3787 20.5699 22.4304 20.2962C22.9775 17.3379 24.4852 15.0259 26.9664 13.3388C27.1129 13.2397 27.2378 13.1126 27.3649 13.0048C25.0086 8.62222 19.5615 6.63777 14.8338 8.4046C10.0996 10.1714 7.21344 15.3707 8.3076 20.1282C8.40021 20.5311 8.59191 20.6647 8.99468 20.7401C9.72914 20.8737 10.4765 21.0374 11.1615 21.3197C14.0067 22.494 16.0378 25.6118 15.7815 28.3655H13.3239C13.2658 28.0143 13.2227 27.6975 13.1581 27.3851C12.5981 24.7413 10.1491 22.9508 7.53221 23.2718C4.80974 23.6036 2.83034 25.9609 2.96604 28.7081C3.10388 31.4704 5.38051 33.5668 8.29252 33.569C19.7683 33.5755 31.244 33.5712 42.7197 33.5712C42.8813 33.5712 43.0428 33.5712 43.2043 33.5625C45.1536 33.4311 46.7345 31.8129 46.8121 29.8737C46.8917 27.8807 45.4508 26.1483 43.4736 25.8574C41.589 25.5816 39.7366 26.8076 39.2305 28.6736C39.1422 29.0011 39.0862 29.3372 39.0216 29.6367H36.4908C36.5985 27.4842 37.3997 25.7131 39.1486 24.5754C40.1179 23.9462 40.3397 23.1641 40.3634 22.1708C40.4582 18.1696 37.6129 14.8665 33.5529 14.2632C29.8483 13.7137 26.1523 16.2541 25.14 20.0183C24.9827 20.6065 25.0495 20.8974 25.6806 21.1603C27.6083 21.9639 28.8554 23.957 28.6701 25.8273H26.2298C25.8938 24.2134 25.0452 23.2891 23.783 23.2761C23.2489 23.2718 22.5726 23.3839 22.2107 23.7157C21.6163 24.2587 21.2264 25.0236 20.6901 25.7842H18.4932L18.4953 25.7799ZM47.6176 61.9525C48.9982 58.5675 51.4924 56.0142 54.0598 53.5105C54.8869 52.7046 55.6989 51.8794 56.4958 51.0434C59.1859 48.2208 60.8272 44.9198 60.9866 40.9725C61.37 31.5134 55.3715 23.0413 46.3102 20.2747C45.1493 19.9192 43.9388 19.7209 42.765 19.4538C42.8425 20.8134 42.9114 22.0027 42.9803 23.218C43.0988 23.2287 43.2302 23.2417 43.3637 23.2524C46.6677 23.5325 49.233 26.1181 49.3881 29.3265C49.5496 32.6425 47.3204 35.5125 44.0013 36.0102C42.4742 36.2386 40.8954 36.1201 39.3382 36.1438C38.4077 36.1589 37.4794 36.146 36.4994 36.146C36.4994 37.3483 36.4994 38.4472 36.4994 39.5439C36.5015 40.9057 36.9065 41.3064 38.2849 41.3064C41.5373 41.3064 44.7874 41.2978 48.0397 41.3107C49.8274 41.3172 51.3158 42.4161 51.809 44.0472C52.5628 46.5466 50.7385 49.0266 48.0785 49.0438C43.8591 49.0697 39.6419 49.0482 35.4225 49.0546C34.4898 49.0546 33.9083 49.589 33.9277 50.3711C33.9471 51.1253 34.5092 51.6144 35.4031 51.6295C36.1548 51.6424 36.9086 51.6273 37.6603 51.6338C40.0102 51.6575 41.6428 53.2993 41.6579 55.6651C41.6686 57.4923 41.6579 59.3216 41.6622 61.1488C41.6622 61.4052 41.6859 61.6638 41.6988 61.946H47.6197L47.6176 61.9525ZM20.1301 36.1783C19.1652 41.2375 19.8479 45.8808 23.2403 49.854C24.7544 51.6273 26.456 53.2455 28.0929 54.9132C30.0421 56.8998 31.8191 59.0027 32.9692 61.5754C33.0468 61.7499 33.2945 61.9589 33.4668 61.9611C35.3126 61.9891 37.1585 61.9783 39.0668 61.9783C39.0668 59.7073 39.1034 57.5376 39.0474 55.3678C39.028 54.6331 38.4788 54.2344 37.7292 54.2215C36.8699 54.2043 36.0083 54.2323 35.1489 54.2107C33.0037 54.1547 31.328 52.431 31.3409 50.3151C31.3538 48.2358 33.0209 46.5401 35.1252 46.4776C35.7154 46.4604 36.3077 46.4733 36.8979 46.4733C40.553 46.4733 44.208 46.4776 47.861 46.4712C48.7785 46.4712 49.3385 46.0122 49.3881 45.2667C49.4419 44.4609 48.8367 43.8985 47.8653 43.8963C44.6668 43.8899 41.4705 43.8963 38.272 43.892C35.4677 43.892 33.9191 42.3536 33.9169 39.5698C33.9169 38.4493 33.9169 37.3311 33.9169 36.1805H20.1279L20.1301 36.1783ZM53.2758 58.0374C51.8047 59.5802 50.6653 61.2673 49.9265 63.213C49.8641 63.3789 50.0256 63.6611 50.1355 63.8594C50.5942 64.6846 50.801 65.5443 50.6287 66.4924C50.5921 66.6949 50.633 66.9815 50.7579 67.1323C51.1973 67.6688 51.6884 68.1622 52.1773 68.6901C53.937 67.1603 55.7979 66.6798 57.8721 67.5525C59.9333 68.4186 60.8961 70.0842 61.0598 72.226H63.5626C63.7327 69.9959 64.7257 68.3799 66.7697 67.5374C68.8417 66.6841 70.7026 67.1905 72.318 68.5889C72.9405 67.9877 73.5155 67.4318 74.1186 66.8479C72.6734 65.1737 72.1801 63.3142 73.0503 61.2371C73.914 59.1751 75.5746 58.2034 77.7263 58.0461V55.5402C75.5035 55.37 73.8817 54.3831 73.0395 52.3362C72.1888 50.2634 72.682 48.3996 74.0971 46.7707C73.4962 46.1544 72.9361 45.5813 72.3482 44.9758C70.8125 46.3096 69.0937 46.8504 67.1207 46.1932C65.137 45.5317 64.0364 44.0773 63.625 42.2071C63.1404 44.0127 62.6386 45.8808 62.1432 47.7317C67.7992 47.8243 71.1183 52.1573 71.3165 56.3159C71.534 60.8579 68.3312 64.9324 63.9933 65.6736C58.8973 66.5441 55.0936 63.8637 53.2801 58.0439L53.2758 58.0374ZM62.9767 6.3943C66.6684 10.0896 70.3128 13.7353 73.9743 17.4025C76.6709 15.1983 78.4026 12.4812 77.582 8.77305C76.8885 5.64016 74.8854 3.5803 71.7752 2.82401C68.0189 1.90827 65.2297 3.6277 62.9767 6.39645V6.3943ZM18.463 71.8855C15.1353 68.5544 11.8335 65.247 8.52083 61.9331C7.51713 64.5381 6.47467 67.2336 5.45805 69.9377C5.39774 70.0993 5.50974 70.4074 5.64328 70.5475C7.03036 71.9674 8.43252 73.3722 9.85622 74.7577C10.0048 74.9021 10.3516 74.9925 10.5368 74.9236C13.2162 73.9195 15.8827 72.881 18.463 71.8877V71.8855ZM14.4633 63.7495C17.5864 60.6231 20.7073 57.5009 23.7852 54.4198C22.4864 52.905 21.1101 51.2976 19.8092 49.7786C16.6279 52.9632 13.3735 56.2211 10.1556 59.4423C11.5836 60.8687 13.0784 62.364 14.4612 63.7495H14.4633ZM20.9766 70.2049C23.908 67.2724 26.8932 64.286 30.0141 61.1617C28.7369 59.6147 27.38 57.975 26.1243 56.4559C22.8633 59.7202 19.7295 62.8553 16.671 65.9171C18.0775 67.3176 19.5744 68.8086 20.9766 70.2049ZM68.7448 57.2057C68.7577 53.1119 65.6152 50.1083 61.9149 50.3862C61.2149 50.4379 60.3813 50.6642 59.8881 51.1166C58.6669 52.2371 57.5985 53.5234 56.4936 54.7667C56.2589 55.0317 56.037 55.3786 55.9789 55.7169C55.5502 58.2141 56.3579 60.2998 58.3244 61.8469C60.4029 63.4844 62.742 63.7409 65.1263 62.5752C67.4804 61.4246 68.6177 59.425 68.7448 57.2079V57.2057ZM57.2152 12.3929C54.9644 14.6273 52.7115 16.8638 50.5339 19.0293C52.257 20.1863 54.0512 21.3908 55.7592 22.5371C57.6718 20.6345 59.6404 18.6738 61.5724 16.7518C60.125 15.3039 58.6302 13.8085 57.2173 12.3951L57.2152 12.3929ZM67.9995 23.2977C66.5069 21.8067 64.9992 20.2984 63.5992 18.8979C61.7016 20.7918 59.7373 22.7504 57.8527 24.6314C59.0179 26.3767 60.2155 28.1737 61.3786 29.9168C63.5733 27.7234 65.809 25.4868 67.9995 23.2977ZM71.9475 19.4602C68.2494 15.7671 64.5921 12.1128 61.021 8.54681C60.4266 9.13288 59.7696 9.78144 59.2506 10.2921C62.8669 13.9098 66.5198 17.5663 70.1857 21.2335C70.7284 20.6862 71.3509 20.0592 71.9475 19.4602ZM40.4517 64.5424C38.3819 64.5424 36.3142 64.5381 34.2443 64.5424C33.2277 64.5445 32.6375 65.0272 32.6375 65.8309C32.6375 66.6346 33.2277 67.1194 34.2422 67.1215C38.3259 67.1258 42.4096 67.1258 46.4954 67.1215C47.5099 67.1215 48.1044 66.6346 48.1044 65.833C48.1044 65.0294 47.5142 64.5467 46.4976 64.5445C44.4816 64.5381 42.4677 64.5445 40.4517 64.5445V64.5424ZM40.3397 72.2863C42.4096 72.2863 44.4773 72.2906 46.5471 72.2841C47.5056 72.2798 48.085 71.8015 48.1044 71.0258C48.1237 70.2199 47.5271 69.7071 46.5277 69.7071C42.416 69.7028 38.3065 69.7028 34.1948 69.7071C33.2277 69.7071 32.6569 70.1833 32.6375 70.9633C32.616 71.7713 33.2105 72.2798 34.212 72.2841C36.2539 72.2906 38.2957 72.2841 40.3376 72.2841L40.3397 72.2863ZM35.8705 74.9128C37.0206 76.6279 38.5369 77.4618 40.4646 77.4316C42.3234 77.4036 43.7751 76.5633 44.8736 74.9128H35.8705ZM4.26481 73.0232C3.85989 74.0725 3.40973 75.1563 3.03065 76.2617C2.79157 76.9598 3.40758 77.6234 4.09681 77.395C5.22543 77.0222 6.32174 76.5568 7.39867 76.141C6.33036 75.0787 5.30943 74.0617 4.26266 73.021L4.26481 73.0232Z" fill="#070707"/>
<path d="M62.2789 60.6683C60.1423 60.6575 58.4041 58.8821 58.4321 56.7382C58.4601 54.6352 60.2112 52.9201 62.3198 52.9309C64.4586 52.9395 66.1946 54.7149 66.1666 56.861C66.1386 58.964 64.3853 60.6812 62.2789 60.6705V60.6683ZM63.582 56.8244C63.597 56.1262 63.0241 55.5294 62.3263 55.5143C61.6284 55.4992 61.0318 56.0724 61.0167 56.7705C61.0016 57.4686 61.5746 58.0676 62.2724 58.0827C62.9681 58.0978 63.5669 57.5225 63.582 56.8244Z" fill="#070707"/>
</svg>
