<svg width="25" height="24" viewBox="0 0 25 24" fill="none" xmlns="http://www.w3.org/2000/svg">
<path d="M12.4023 0C19.0299 0 24.4023 5.3724 24.4023 12C24.4023 18.6276 19.0299 24 12.4023 24C5.77474 24 0.402344 18.6276 0.402344 12C0.402344 5.3724 5.77474 0 12.4023 0ZM12.4023 2.4C9.85627 2.4 7.41447 3.41143 5.61412 5.21178C3.81377 7.01212 2.80234 9.45392 2.80234 12C2.80234 14.5461 3.81377 16.9879 5.61412 18.7882C7.41447 20.5886 9.85627 21.6 12.4023 21.6C14.9484 21.6 17.3902 20.5886 19.1906 18.7882C20.9909 16.9879 22.0023 14.5461 22.0023 12C22.0023 9.45392 20.9909 7.01212 19.1906 5.21178C17.3902 3.41143 14.9484 2.4 12.4023 2.4ZM12.4023 4.8C12.6963 4.80004 12.9799 4.90795 13.1996 5.10326C13.4192 5.29857 13.5596 5.5677 13.5939 5.8596L13.6023 6V11.5032L16.8507 14.7516C17.066 14.9676 17.1909 15.2573 17.2002 15.5621C17.2095 15.8668 17.1025 16.1637 16.9008 16.3923C16.6992 16.621 16.4181 16.7644 16.1146 16.7933C15.8111 16.8222 15.5079 16.7345 15.2667 16.548L15.1539 16.4484L11.5539 12.8484C11.3674 12.6617 11.2477 12.4188 11.2131 12.1572L11.2023 12V6C11.2023 5.68174 11.3288 5.37652 11.5538 5.15147C11.7789 4.92643 12.0841 4.8 12.4023 4.8Z" fill="#070707"/>
</svg>
